<?xml version="1.0" standalone="no"?>
<!DOCTYPE svg PUBLIC "-//W3C//DTD SVG 20010904//EN"
 "http://www.w3.org/TR/2001/REC-SVG-20010904/DTD/svg10.dtd">
<svg version="1.0" xmlns="http://www.w3.org/2000/svg"
 width="32.000000pt" height="32.000000pt" viewBox="0 0 32.000000 32.000000"
 preserveAspectRatio="xMidYMid meet">

<g transform="translate(0.000000,32.000000) scale(0.100000,-0.100000)"
fill="#000000" stroke="none">
<path d="M146 264 c-49 -36 -67 -44 -103 -44 l-43 0 0 -60 0 -60 45 0 c38 0
55 -7 101 -41 30 -23 57 -40 60 -37 2 3 3 69 2 146 l-3 141 -59 -45z"/>
<path d="M240 180 c8 -14 8 -26 0 -40 -8 -15 -8 -20 3 -20 7 0 18 5 25 12 8 8
15 8 27 -2 20 -17 32 -5 15 15 -10 12 -10 18 0 30 17 21 4 32 -20 17 -12 -7
-21 -8 -25 -2 -3 6 -13 10 -21 10 -12 0 -12 -4 -4 -20z"/>
</g>
</svg>
