<?xml version="1.0" standalone="no"?>
<!DOCTYPE svg PUBLIC "-//W3C//DTD SVG 20010904//EN"
 "http://www.w3.org/TR/2001/REC-SVG-20010904/DTD/svg10.dtd">
<svg version="1.0" xmlns="http://www.w3.org/2000/svg"
 width="32.000000pt" height="32.000000pt" viewBox="0 0 32.000000 32.000000"
 preserveAspectRatio="xMidYMid meet">

<g transform="translate(0.000000,32.000000) scale(0.100000,-0.100000)"
fill="#000000" stroke="none">
<path d="M140 260 c-43 -32 -62 -40 -97 -40 l-43 0 0 -60 0 -60 43 0 c35 0 54
-8 97 -40 29 -22 57 -40 62 -40 4 0 8 63 8 140 0 77 -4 140 -8 140 -5 0 -33
-18 -62 -40z"/>
<path d="M270 236 c0 -2 7 -20 15 -40 14 -32 14 -40 0 -72 -18 -43 -18 -44 -5
-44 13 0 40 54 40 80 0 26 -27 80 -40 80 -6 0 -10 -2 -10 -4z"/>
<path d="M244 160 c0 -27 3 -50 8 -50 12 0 21 47 14 75 -11 41 -22 28 -22 -25z"/>
</g>
</svg>
